<?xml version="1.0" encoding="utf-8"?>
<!-- Generator: Adobe Illustrator 22.1.0, SVG Export Plug-In . SVG Version: 6.00 Build 0)  -->
<svg version="1.1" id="Layer_1" xmlns="http://www.w3.org/2000/svg" xmlns:xlink="http://www.w3.org/1999/xlink" x="0px" y="0px"
	 viewBox="0 0 77.831 100" style="enable-background:new 0 0 77.831 100;" xml:space="preserve">
<style type="text/css">
	.st0{fill:#ED7E2B;}
</style>
<path class="st0" d="M77.495,16.065l-0.115-1.303l-1.248,0.379c-3.019,0.92-6.169,1.388-9.357,1.388
	c-11.036,0-21.364-5.755-26.95-15.023L38.919,0l-0.911,1.506c-5.586,9.268-15.912,15.023-26.95,15.023
	c-3.185,0-6.331-0.465-9.338-1.382l-1.252-0.379l-0.114,1.303c-0.793,9.01-0.252,18.074,1.605,26.938
	c1.946,9.287,5.319,18.238,10.023,26.608c2.439,4.351,5.255,8.548,8.37,12.485c5.185,6.555,11.211,12.414,17.912,17.427L38.897,100
	l0.634-0.472c6.74-5.019,12.778-10.867,17.947-17.377c3.108-3.917,5.924-8.109,8.367-12.465c4.465-7.937,7.739-16.483,9.733-25.392
	c0-0.006,0.261-1.287,0.261-1.287C77.711,34.071,78.265,25.008,77.495,16.065z M38.9,97.286
	c-6.287-4.79-11.988-10.313-16.886-16.497c-0.019-0.026-0.038-0.057-0.057-0.083l16.95-16.485l16.982,16.517
	c-0.025,0.025-0.045,0.064-0.07,0.096C50.933,86.98,45.219,92.49,38.9,97.286z M73.507,43.836
	c-1.927,8.609-5.089,16.869-9.376,24.557L38.907,44.129L13.708,68.342C9.217,60.291,5.981,51.7,4.087,42.792h69.631L73.507,43.836z"
	/>
</svg>
