<svg id="ea87bed4-644f-40c5-89e1-1dbf1f5360ae" data-name="Layer 1" xmlns="http://www.w3.org/2000/svg" viewBox="0 0 4063.902 578.994"><title>rumor-ambigram</title><path d="M513.42,278.937v3.46q39.24,4.38,65.42,14.91,26.16,10.53,38.88,34.52t12.72,69.77v30.45c0,17.86,9.61,32.36,27.49,32.36h4.76v108.41H630.44a142.458,142.458,0,0,1-142.46-142.45v-15.68q0-27.63-9.08-42.53-9.105-14.88-36.34-21.08-27.255-6.165-81.76-6.18l-45.58-.3H242.75q-57.405,0-78.86,11.99-21.42,12-21.43,45.43v3.63q0,24.72,10.17,37.43,10.185,12.72,37.79,17.44,27.63,4.74,79.22,4.73H396.28v107.57H218.77q-79.95,0-127.91-12.72-47.985-12.72-69.41-41.07T0,444.177v-25.43q0-58.875,27.99-85.04t89.03-30.53l50.62-3.12v-3.47q-39.24-4.365-65.42-14.9-26.16-10.545-38.88-34.53t-12.72-69.77v-30.44c0-17.87-9.61-32.37-27.49-32.37H18.37V6.177H50.62a142.441,142.441,0,0,1,142.46,142.45v15.68q0,27.615,9.08,42.52,9.1,14.9,36.34,21.08,27.255,6.165,81.76,6.18l45.58.3h72.47q57.4,0,78.86-11.99,21.42-12,21.43-45.42v-3.64q0-24.7-10.17-37.43-10.185-12.705-37.79-17.44-27.63-4.725-79.22-4.72H284.78V6.177H462.29q79.95,0,127.91,12.71,47.985,12.735,69.41,41.07,21.435,28.35,21.45,74.86v25.43q0,58.875-27.99,85.04t-89.03,30.53Z"/><path d="M3896.252,278.937v3.46q39.24,4.38,65.42,14.91,26.16,10.53,38.88,34.52,12.7,23.985,12.72,69.77v30.45c0,17.86,9.61,32.36,27.49,32.36h4.76v108.41h-32.25a142.458,142.458,0,0,1-142.46-142.45v-15.68q0-27.63-9.08-42.53-9.105-14.88-36.34-21.08-27.255-6.165-81.76-6.18l-45.58-.3h-72.47q-57.405,0-78.86,11.99-21.42,12-21.43,45.43v3.63q0,24.72,10.17,37.43t37.79,17.44q27.63,4.74,79.22,4.73h126.64v107.57H3601.6q-79.95,0-127.91-12.72-47.985-12.72-69.41-41.07t-21.45-74.85v-25.43q0-58.875,27.99-85.04t89.03-30.53l50.63-3.12v-3.47q-39.24-4.365-65.42-14.9-26.16-10.545-38.88-34.53-12.7-23.97-12.72-69.77v-30.44c0-17.87-9.61-32.37-27.49-32.37h-4.76V6.177h32.25a142.441,142.441,0,0,1,142.46,142.45v15.68q0,27.615,9.08,42.52,9.105,14.9,36.34,21.08,27.255,6.165,81.76,6.18l45.58.3h72.47q57.4,0,78.86-11.99,21.42-12,21.43-45.42v-3.64q0-24.7-10.17-37.43-10.185-12.705-37.79-17.44-27.63-4.725-79.22-4.72h-126.64V6.177h177.51q79.95,0,127.91,12.71,47.985,12.735,69.41,41.07,21.435,28.35,21.45,74.86v25.43q0,58.875-27.99,85.04-27.975,26.16-89.03,30.53Z"/><path d="M1488.422,106.3Q1451.911,46.652,1371.3,20.685,1327.4,6.549,1267.668.112V129.161q34.62,8.424,54.7,23.392,24.46,18.258,33.692,49.1,9.213,30.849,9.225,76.28v18.664q0,44.638-9.225,75.469-9.231,30.851-33.692,49.1-24.48,18.26-70.594,26.779-46.14,8.521-119.93,8.521h-37.7q-74.6,0-120.33-8.521t-70.193-26.779q-24.48-18.258-33.291-49.1-8.837-30.829-8.825-75.469V277.929q0-45.436,8.825-76.28t33.291-49.1q20.367-15.2,55.5-23.646V0Q898.979,6.431,854.682,20.685,774.06,46.667,737.56,106.3t-36.5,160.27v40.575q0,100.632,36.5,160.271t117.122,85.612q80.622,25.981,213.787,25.968h88.243q133.961,0,214.589-25.968t117.121-85.612q36.495-59.646,36.5-160.271V266.568Q1524.923,165.956,1488.422,106.3Z"/><path d="M2575.47,472.7q36.512,59.646,117.121,85.613,43.9,14.136,103.633,20.573V449.833q-34.62-8.424-54.7-23.392-24.46-18.258-33.693-49.095-9.213-30.851-9.225-76.281V282.4q0-44.639,9.225-75.469,9.231-30.85,33.693-49.1,24.479-18.258,70.594-26.779,46.139-8.52,119.929-8.521h37.7q74.6,0,120.33,8.521t70.193,26.779q24.48,18.259,33.291,49.1,8.837,30.83,8.825,75.469v18.664q0,45.438-8.825,76.281t-33.291,49.095q-20.367,15.2-55.5,23.646V578.994q60.139-6.429,104.435-20.685,80.622-25.98,117.122-85.613t36.5-160.27V271.851q0-100.63-36.5-160.27T3209.21,25.968Q3128.59-.012,2995.423,0h-88.242q-133.962,0-214.59,25.968T2575.47,111.581q-36.493,59.644-36.5,160.27v40.575Q2538.969,413.039,2575.47,472.7Z"/><polygon points="2499.566 6.177 2499.566 572.817 2351.586 572.817 2351.586 122.747 2346.306 122.747 2228.766 572.817 1957.956 572.817 1957.956 122.747 1952.676 122.747 1835.136 572.817 1564.326 572.817 1564.326 6.177 1712.306 6.177 1712.306 456.236 1717.596 456.236 1835.136 6.177 2105.936 6.177 2105.936 456.236 2111.226 456.236 2228.766 6.177 2499.566 6.177"/></svg>