<?xml version="1.0" encoding="utf-8"?>
<!-- Generator: Adobe Illustrator 23.0.1, SVG Export Plug-In . SVG Version: 6.00 Build 0)  -->
<svg version="1.1" id="a997016c-db65-4858-a20c-b74374785ce3"
	 xmlns="http://www.w3.org/2000/svg" xmlns:xlink="http://www.w3.org/1999/xlink" x="0px" y="0px" viewBox="0 0 4000 850"
	 style="enable-background:new 0 0 4000 850;" xml:space="preserve">
<title>ambigram</title>
<path d="M1358.1,850h-267.7c-122.9,0-222.5-99.6-222.5-222.5v-405C867.9,99.6,967.5,0,1090.4,0v133.2c-49.3,0.1-89.2,40-89.3,89.3
	v405c0.1,49.3,40,89.2,89.3,89.3h267.7c49.3-0.1,89.2-40,89.3-89.3v-405c-0.1-49.3-40-89.2-89.3-89.3V0
	c122.9,0,222.5,99.6,222.5,222.5v405C1580.6,750.4,1480.9,850,1358.1,850L1358.1,850z"/>
<path d="M2642,0h267.7c122.9,0,222.5,99.6,222.5,222.5c0,0,0,0,0,0v405c0,122.9-99.6,222.5-222.5,222.5V716.8
	c49.3-0.1,89.2-40,89.3-89.3v-405c-0.1-49.3-40-89.2-89.3-89.3H2642c-49.3,0.1-89.2,40-89.3,89.3v405c0.1,49.3,40,89.2,89.3,89.3
	V850c-122.9,0-222.5-99.6-222.5-222.5c0,0,0,0,0,0v-405C2419.4,99.6,2519.1,0,2642,0C2642,0,2642,0,2642,0z"/>
<g>
	<g>
		<path d="M1937.3,716.8V850c-122.9,0-222.5-99.6-222.5-222.5c0,0,0,0,0,0v-405c-0.1-49.3-40-89.2-89.3-89.3V0
			C1748.4,0,1848,99.6,1848,222.5c0,0,0,0,0,0v405C1848.1,676.8,1888,716.7,1937.3,716.8z"/>
		<path d="M2155.9,716.8V850c-122.9,0-222.5-99.6-222.5-222.5c0,0,0,0,0,0v-405c-0.1-49.3-40-89.2-89.3-89.3V0
			c122.9,0,222.5,99.6,222.5,222.5v405C2066.7,676.8,2106.6,716.7,2155.9,716.8z"/>
	</g>
	<path d="M2374.5,716.8V850c-122.9,0-222.5-99.6-222.5-222.5c0,0,0,0,0,0v-405c-0.1-49.3-40-89.2-89.3-89.3V0
		c122.9,0,222.5,99.6,222.5,222.5v405C2285.3,676.8,2325.2,716.7,2374.5,716.8z"/>
</g>
<path d="M822.9,716.8V850c-105.7,0-191.3-85.7-191.3-191.3V549.7c0-32.1-26-58.1-58.1-58.1H249.4c-32,0.1-58,26.1-58,58.1v108.9
	c0,32.1,26,58.1,58.1,58.1h322.3V850H249.5c-105.7,0-191.3-85.7-191.3-191.3V549.7c-0.1-45.8,16.3-90,46.2-124.7
	c-30-34.6-46.4-79-46.3-124.8v-109c0-32.1-26-58.1-58.1-58.1V0c50.8-0.1,99.5,20,135.3,56c36,35.8,56.2,84.5,56,135.3v109
	c0,32.1,26,58.1,58.1,58.1h324.1c32-0.1,58-26.1,58-58.1v-109c0-32.1-26-58.1-58.1-58.1H251.1V0h322.3
	c105.7,0,191.3,85.7,191.3,191.3c0,0,0,0,0,0v109c0.1,45.8-16.3,90-46.2,124.7c30,34.6,46.4,79,46.3,124.8v108.9
	C764.9,690.7,790.9,716.7,822.9,716.8z"/>
<path d="M4000,716.8V850c-105.7,0-191.3-85.7-191.3-191.3V549.7c0-32.1-26-58.1-58.1-58.1h-324.1c-32,0.1-58,26.1-58,58.1v108.9
	c0,32.1,26,58.1,58.1,58.1h322.3V850h-322.3c-105.7,0-191.3-85.7-191.3-191.3V549.7c-0.1-45.8,16.3-90,46.2-124.7
	c-30-34.6-46.4-79-46.3-124.8v-109c0-32.1-26-58.1-58.1-58.1V0c105.7,0,191.3,85.7,191.3,191.3v109c0,32.1,26,58.1,58.1,58.1h324.1
	c32-0.1,58-26.1,58-58.1v-109c0-32.1-26-58.1-58.1-58.1h-322.3V0h322.3c105.7,0,191.3,85.6,191.3,191.3c0,0,0,0,0,0v109
	c0.1,45.8-16.3,90-46.2,124.7c30,34.6,46.4,79,46.3,124.8v108.9C3941.9,690.7,3967.9,716.7,4000,716.8z"/>
</svg>
