<?xml version="1.0" encoding="utf-8"?>
<!-- Generator: Adobe Illustrator 23.0.1, SVG Export Plug-In . SVG Version: 6.00 Build 0)  -->
<svg version="1.1" id="abfb3ae9-e388-4c95-ada5-99b5f3d02a4e"
	 xmlns="http://www.w3.org/2000/svg" xmlns:xlink="http://www.w3.org/1999/xlink" x="0px" y="0px" viewBox="0 0 750 4000"
	 style="enable-background:new 0 0 750 4000;" xml:space="preserve">
<title>ambigram-vertical</title>
<g>
	<path d="M497,1572.6H253c-112,0-202.8-90.6-202.8-202.3v-368.1C50.2,890.6,141,800,253,800v121.1c-44.9,0-81.3,36.4-81.4,81.2
		v368.1c0,44.8,36.5,81.1,81.4,81.2H497c44.9,0,81.3-36.4,81.4-81.2v-368.1c0-44.8-36.5-81.1-81.4-81.2V800
		c112,0,202.8,90.6,202.8,202.3v368.1C699.8,1482.1,609,1572.6,497,1572.6L497,1572.6z"/>
	<path d="M253,2427.4H497c112,0,202.8,90.6,202.8,202.2v368.1c0,111.7-90.8,202.3-202.8,202.3v-121.1c44.9,0,81.3-36.4,81.4-81.2
		v-368.1c0-44.8-36.5-81.1-81.4-81.2H253c-44.9,0-81.3,36.4-81.4,81.2v368.1c0,44.8,36.5,81.1,81.4,81.2V3200
		c-112,0-202.8-90.5-202.8-202.2v-368.1C50.2,2517.9,141,2427.4,253,2427.4L253,2427.4z"/>
	<path d="M317.9,2278.9V2400c-112,0-202.8-90.5-202.8-202.2v-368.1c0-44.8-36.5-81.1-81.4-81.2v-121.1c112,0,202.8,90.5,202.8,202.2
		v368.1C236.5,2242.5,272.9,2278.9,317.9,2278.9z"/>
	<path d="M517.1,2278.9V2400c-112,0-202.8-90.5-202.8-202.2v-368.1c0-44.8-36.5-81.1-81.4-81.2v-121.1c112,0,202.8,90.6,202.8,202.3
		v368.1C435.8,2242.5,472.2,2278.9,517.1,2278.9z"/>
	<path d="M716.3,2278.9V2400c-112,0-202.8-90.6-202.8-202.3l0,0v-368.1c0-44.8-36.5-81.1-81.4-81.2v-121.1
		c112,0,202.8,90.6,202.8,202.3v368.1C635,2242.5,671.4,2278.9,716.3,2278.9z"/>
	<path d="M750,651.5v121.1c-96.3,0-174.4-77.9-174.4-173.9v-99c0-29.2-23.7-52.8-53-52.8H227.3c-29.2,0.1-52.9,23.7-52.9,52.8v99
		c0,29.2,23.7,52.8,53,52.8h293.7v121.1H227.4C131.1,772.6,53,694.7,53,598.7v-99c-0.1-41.6,14.8-81.8,42.1-113.3
		C67.8,354.9,52.8,314.6,53,272.9v-99c0-29.2-23.7-52.8-53-52.8V0c46.3-0.1,90.7,18.2,123.3,50.9c32.8,32.5,51.2,76.8,51.1,123v99
		c0,29.2,23.7,52.8,53,52.8h295.3c29.2-0.1,52.9-23.7,52.9-52.8v-99c0-29.2-23.7-52.8-53-52.8H228.9V0h293.7
		C618.9,0,697,77.9,697,173.9v99c0.1,41.6-14.8,81.8-42.1,113.3c27.3,31.5,42.3,71.8,42.2,113.4v99
		C697.1,627.9,720.8,651.5,750,651.5z"/>
	<path d="M750,3878.9V4000c-96.3,0-174.4-77.9-174.4-173.9v-99c0-29.2-23.7-52.8-53-52.8H227.3c-29.2,0.1-52.9,23.7-52.9,52.8v99
		c0,29.2,23.7,52.8,53,52.8h293.7V4000H227.4c-96.3,0-174.4-77.9-174.4-173.9v-99c-0.1-41.6,14.8-81.8,42.1-113.3
		c-27.3-31.5-42.3-71.8-42.2-113.4v-99c0-29.2-23.7-52.8-53-52.8v-121.1c96.3,0,174.4,77.9,174.4,173.9v99c0,29.2,23.7,52.8,53,52.8
		h295.3c29.2-0.1,52.9-23.7,52.9-52.8v-99c0-29.2-23.7-52.8-53-52.8H228.9v-121.1h293.7c96.3,0,174.4,77.9,174.4,173.9v99
		c0.1,41.6-14.8,81.8-42.1,113.3c27.3,31.5,42.3,71.8,42.2,113.4v99C697.1,3855.2,720.8,3878.9,750,3878.9z"/>
</g>
</svg>
